PathFileType	4	(X/Y/Z)	C:/Users/opensim2020/Desktop/walking_exp_matlab/subject02_walking09_straight_02.trc																																																																																																																												
DataRate	CameraRate	NumFrames	NumMarkers	Units	OrigDataRate	OrigDataStartFrame	OrigNumFrames																																																																																																																								
100	100	6	42	mm	100	1214	436																																																																																																																								
Frame#	Time	LFHD			RFHD			LBHD			RBHD			C7			T10			CLAV			STRN			RBAK			LSHO			LUPA			LELB			LFRM			LWRA			LWRB			LFIN			RSHO			RUPA			RELB			RFRM			RWRA			RWRB			RFIN			LASI			RASI			LPSI			RPSI			LTHI			LKNE			LTIB			LANK			LHEE			LTOE			RTHI			RKNE			RTIB			RANK			RHEE			RTOE			*39			*40			*41		
		X1	Y1	Z1	X2	Y2	Z2	X3	Y3	Z3	X4	Y4	Z4	X5	Y5	Z5	X6	Y6	Z6	X7	Y7	Z7	X8	Y8	Z8	X9	Y9	Z9	X10	Y10	Z10	X11	Y11	Z11	X12	Y12	Z12	X13	Y13	Z13	X14	Y14	Z14	X15	Y15	Z15	X16	Y16	Z16	X17	Y17	Z17	X18	Y18	Z18	X19	Y19	Z19	X20	Y20	Z20	X21	Y21	Z21	X22	Y22	Z22	X23	Y23	Z23	X24	Y24	Z24	X25	Y25	Z25	X26	Y26	Z26	X27	Y27	Z27	X28	Y28	Z28	X29	Y29	Z29	X30	Y30	Z30	X31	Y31	Z31	X32	Y32	Z32	X33	Y33	Z33	X34	Y34	Z34	X35	Y35	Z35	X36	Y36	Z36	X37	Y37	Z37	X38	Y38	Z38	X39	Y39	Z39	X40	Y40	Z40	X41	Y41	Z41	X42	Y42	Z42
																																																																																																																															
1	0	-1980.80176	1737.72241	-954.33966	-1950.14807	1697.86353	-821.0697	-2119.31543	1681.72583	-935.70154	-2097.82813	1642.84753	-798.34125	-2162.93945	1531.32251	-841.16553	-2208.51978	1252.6875	-808.62799	-2057.75244	1461.72571	-932.78632	-2016.96484	1290.75208	-966.42377	-2178.81738	1350.31909	-760.77502	-2210.92114	1517.20435	-1027.25281	-2269.17627	1321.8772	-1098.30103	-2274.27344	1181.24475	-1122.5177	-2255.98584	1054.72144	-1162.43945	-2171.90063	944.77582	-1190.95837	-2228.05835	937.4881	-1193.55005	-2201.05444	879.13434	-1215.80078	-1994.81482	1482.09399	-733.5072	-1983.05347	1287.11536	-655.72406	-1975.77563	1140.3457	-657.63599	-1949.07312	1022.44073	-653.8894	-1922.6604	893.67633	-693.57959	-1949.96313	892.1358	-644.11359	-1920.64966	826.56793	-658.21777	-2121.57251	986.16144	-1057.61011	-1948.21741	986.41736	-874.95953	-2223.54761	1035.70972	-858.49384	-2147.89258	1037.30103	-769.46289	-2279.65601	691.16565	-1021.034	-2307.10059	503.55334	-990.63623	-2411.44873	377.42911	-890.73029	-2488.89063	183.56528	-805.1991	-2469.59961	176.70248	-742.10876	-2450.65869	51.35628	-886.03241	-1924.19043	682.75977	-806.17896	-1928.83105	478.42694	-865.53284	-1947.65906	290.14484	-850.05542	-1980.65051	100.13219	-881.02008	-2042.3689	49.19949	-908.16431	-1848.83215	47.33297	-957.07513	-2045.21948	1800.88806	-833.43066	-2845.23242	1034.11487	3360.29858	NaN	NaN	NaN
2	0.01	-1974.37378	1739.33289	-956.5047	-1943.90796	1699.5188	-823.15668	-2112.80151	1683.03735	-938.2962	-2091.44922	1643.95703	-800.87524	-2156.22412	1532.34998	-843.76715	-2201.29614	1253.68652	-811.13342	-2050.93042	1463.16418	-935.5423	-2009.6405	1291.98865	-968.83356	-2171.59497	1351.32092	-763.48486	-2204.41772	1518.5968	-1029.68298	-2262.94263	1322.86133	-1099.63574	-2268.56665	1181.8407	-1122.08801	-2251.32349	1054.74597	-1160.55054	-2167.94141	943.75549	-1187.65173	-2224.20166	936.91827	-1190.39844	-2197.96631	878.27899	-1212.12183	-1988.62561	1484.0127	-736.05334	-1975.66089	1288.92493	-658.29041	-1967.46594	1142.07568	-660.4776	-1939.87488	1024.18738	-657.12817	-1912.6731	895.80988	-697.37805	-1940.17859	894.00964	-647.56586	-1910.43091	828.67157	-662.06042	-2114.62109	987.659	-1059.84119	-1941.02905	986.80164	-877.94916	-2216.22388	1037.1355	-860.77979	-2139.88452	1038.9353	-772.02692	-2268.57422	690.93768	-1031.07971	-2296.41211	503.62619	-1001.07977	-2402.17163	379.83371	-901.69904	-2481.8877	188.87769	-813.23645	-2463.14502	183.21262	-749.59851	-2445.97705	54.1992	-890.01788	-1919.59351	683.07611	-807.76062	-1926.3855	478.07428	-866.02338	-1946.16443	290.03479	-850.16907	-1980.44873	100.05397	-880.86835	-2042.41724	49.12454	-907.94922	-1848.9248	47.40453	-957.31836	-2038.86182	1802.0979	-835.07208	-2845.92163	1034.04932	3356.91699	NaN	NaN	NaN
3	0.02	-1968.00586	1740.93774	-958.63171	-1938.29248	1700.95239	-825.35333	-2106.37451	1684.23267	-940.97186	-2086.57202	1645.1084	-804.80524	-2149.54224	1533.40942	-846.35962	-2194.03687	1254.73157	-813.57104	-2044.07922	1464.32202	-938.01025	-2002.66138	1293.29297	-971.49811	-2164.33472	1352.32166	-766.14874	-2197.51245	1519.41101	-1031.80493	-2257.28931	1324.03674	-1101.77197	-2262.98145	1182.12988	-1121.90686	-2246.76123	1054.68127	-1158.70276	-2164.22046	942.60492	-1184.38135	-2221.38623	937.15619	-1188.62122	-2194.19995	876.46216	-1207.17749	-1981.86145	1485.50342	-738.74829	-1968.40039	1290.72534	-660.7326	-1959.23303	1143.72827	-663.1062	-1931.08374	1026.10278	-659.94672	-1903.09644	898.01813	-700.7381	-1930.21667	895.72217	-651.12482	-1899.99866	830.68671	-665.84979	-2108.02246	988.9787	-1062.53943	-1934.16724	987.19232	-881.24341	-2208.96313	1038.47021	-862.80182	-2132.13037	1040.49927	-774.48798	-2257.24121	690.69434	-1040.98547	-2285.47241	503.68375	-1011.38281	-2392.35938	381.44955	-912.23798	-2474.25513	193.98135	-820.97046	-2455.93701	188.87045	-757.19061	-2440.70264	58.43617	-897.09637	-1915.08447	683.45233	-809.2475	-1924.18298	477.92795	-866.2746	-1944.88745	289.91168	-850.19464	-1980.23804	99.99335	-880.49768	-2042.47278	49.08882	-907.80493	-1848.98914	47.19649	-957.04657	-2033.39246	1803.32397	-837.75354	-2845.97754	1033.99292	3357.01563	NaN	NaN	NaN
4	0.03	-1962.745	1742.99316	-961.97461	-1934.3689	1702.21094	-828.5575	-2099.97803	1685.38562	-943.54028	-2081.48535	1646.30615	-808.32611	-2142.89502	1534.47498	-848.91888	-2186.83569	1255.86438	-815.94562	-2037.54077	1465.73279	-941.02637	-1996.00171	1294.72522	-974.56073	-2157.19165	1353.47888	-768.60315	-2191.21118	1520.51843	-1034.29785	-2251.23682	1324.83374	-1103.08655	-2257.43164	1182.57947	-1121.60229	-2242.29834	1054.58276	-1156.91394	-2160.81738	941.60651	-1181.52209	-2218.48169	937.05573	-1186.32678	-2191.69312	875.62946	-1203.79004	-1974.51367	1486.87305	-741.95404	-1961.00464	1292.35876	-663.33514	-1951.09192	1145.34583	-665.62921	-1922.08948	1027.97986	-663.03796	-1893.05103	900.19257	-704.44025	-1920.22449	897.48517	-654.81152	-1889.28809	832.88165	-669.89471	-2101.57788	990.14886	-1065.02136	-1927.55103	987.3678	-884.20508	-2201.84937	1039.61487	-864.76178	-2124.6355	1041.9314	-776.8103	-2245.79858	690.59027	-1050.92773	-2274.42285	503.8804	-1021.72266	-2382.66235	383.5177	-922.75677	-2465.65356	198.14069	-828.39783	-2447.75293	193.21761	-764.98456	-2434.21484	63.36299	-906.24725	-1910.63818	683.81091	-810.79962	-1922.17554	477.80292	-866.44067	-1943.84851	289.84506	-850.17743	-1980.23035	100.05155	-880.51324	-2042.53918	49.04391	-907.61029	-1849.12854	47.33149	-957.39087	-2027.6748	1804.52148	-840.00684	-2845.16431	1034.09082	3360.21387	NaN	NaN	NaN
5	0.04	-1955.7937	1744.23206	-963.24286	-1926.37598	1703.46619	-830.07074	-2093.69458	1686.49634	-946.11688	-2074.19409	1646.97083	-810.1084	-2136.48291	1535.48621	-851.83057	-2179.82153	1256.95483	-818.18665	-2030.89612	1466.90625	-943.7464	-1988.62073	1295.60254	-976.62604	-2150.03882	1354.70874	-770.9823	-2185.45605	1521.77673	-1037.34546	-2245.43408	1325.54211	-1104.55359	-2252.177	1183.09973	-1121.61182	-2238.02295	1054.60339	-1155.36548	-2157.56006	940.51099	-1178.82556	-2215.91992	936.96844	-1184.5564	-2189.12109	874.47656	-1200.00317	-1968.11304	1488.56812	-744.88629	-1953.56824	1293.93225	-665.9964	-1942.90247	1146.84546	-668.15845	-1912.83276	1029.45483	-666.22772	-1882.94653	902.33099	-708.23865	-1910.00439	899.01251	-658.41803	-1878.41614	834.96454	-674.01941	-2095.75781	991.2052	-1067.73401	-1921.21045	987.4765	-887.1842	-2195.08887	1040.81641	-866.61316	-2117.55811	1043.53735	-778.97583	-2234.23682	690.72339	-1060.63843	-2263.25464	504.31448	-1031.83105	-2372.71558	386.17331	-933.08618	-2456.36621	201.85417	-836.62714	-2438.40308	196.17148	-773.04889	-2426.45215	67.64435	-915.99097	-1906.35156	684.02856	-812.32886	-1920.35571	477.42621	-866.5058	-1943.03479	289.79953	-850.02631	-1980.12097	99.98936	-880.24774	-2042.62878	49.04107	-907.52936	-1849.20215	47.29058	-957.36682	-2022.02649	1805.6449	-842.22717	-2845.66577	1034.13586	3356.94067	NaN	NaN	NaN
6	0.05	-1950.26294	1746.10413	-966.21527	-1919.68713	1704.81885	-832.10156	-2087.58081	1687.64465	-949.01447	-2068.8291	1647.8363	-813.35742	-2129.23901	1536.17285	-853.33954	-2172.85376	1258.16406	-820.36536	-2024.72876	1468.23157	-946.88483	-1982.36902	1296.78748	-979.79749	-2143.03296	1356.00891	-773.21527	-2178.84961	1522.51208	-1039.15771	-2239.62598	1326.08313	-1105.89197	-2246.99683	1183.4574	-1121.50232	-2234.08081	1054.64172	-1154.02148	-2154.48657	939.39282	-1176.12561	-2212.91089	936.53259	-1181.77734	-2186.71997	873.32623	-1196.37939	-1961.08765	1489.87329	-748.06311	-1946.00146	1295.31311	-668.84973	-1934.56104	1148.16467	-670.77899	-1903.7135	1031.20117	-669.35547	-1872.46179	904.35864	-712.1189	-1899.7843	900.53729	-662.32428	-1867.36304	837.00128	-678.26471	-2090.25195	992.21472	-1070.6123	-1914.92175	987.63879	-890.18573	-2188.38501	1041.7467	-868.37689	-2110.65601	1044.73376	-781.1875	-2221.0166	689.63257	-1067.83057	-2250.42773	503.52448	-1039.42078	-2361.84961	388.31567	-942.51709	-2446.54834	205.02391	-845.55756	-2428.36523	198.04764	-781.60376	-2418.08252	71.97654	-926.84143	-1902.27246	684.15326	-813.80042	-1918.83997	477.22095	-866.36591	-1942.46838	289.7114	-849.84668	-1980.19019	100.03695	-880.33856	-2042.6532	48.99711	-907.4798	-1849.24683	47.28512	-957.35669	-2016.49133	1806.71741	-844.6015	-2845.15552	1034.08948	3360.24414	NaN	NaN	NaN
